<svg width="23" height="23" viewBox="0 0 23 23" fill="none" xmlns="http://www.w3.org/2000/svg">
<path d="M16.223 10.3108C16.223 9.98087 16.223 9.81597 16.2726 9.669C16.4169 9.2419 16.7973 9.07616 17.1783 8.90259C17.6067 8.70748 17.8209 8.60992 18.0331 8.59275C18.2741 8.57327 18.5154 8.62518 18.7213 8.74076C18.9944 8.89397 19.1847 9.18511 19.3797 9.42186C20.28 10.5153 20.73 11.0621 20.8947 11.665C21.0277 12.1515 21.0277 12.6603 20.8947 13.1468C20.6545 14.0262 19.8956 14.7634 19.3338 15.4457C19.0465 15.7947 18.9027 15.9692 18.7213 16.0711C18.5154 16.1866 18.2741 16.2385 18.0331 16.2191C17.8209 16.2019 17.6067 16.1044 17.1783 15.9092C16.7973 15.7356 16.4169 15.57 16.2726 15.1428C16.223 14.9959 16.223 14.831 16.223 14.5011V10.3108Z" stroke="#F6F8FC" stroke-width="1.90858"/>
<path d="M6.68006 10.3109C6.68006 9.89556 6.6684 9.52225 6.33261 9.23022C6.21048 9.12401 6.04856 9.05025 5.72473 8.90276C5.29635 8.70763 5.08216 8.61008 4.86992 8.59291C4.23317 8.54142 3.89059 8.97601 3.52339 9.42202C2.62313 10.5155 2.173 11.0622 2.00829 11.6651C1.87537 12.1517 1.87537 12.6605 2.00829 13.147C2.24852 14.0264 3.00749 14.7635 3.56927 15.4459C3.92339 15.876 4.26166 16.2684 4.86992 16.2193C5.08216 16.2021 5.29635 16.1045 5.72473 15.9094C6.04856 15.7619 6.21048 15.6881 6.33261 15.5819C6.6684 15.2899 6.68006 14.9167 6.68006 14.5013V10.3109Z" stroke="#F6F8FC" stroke-width="1.90858"/>
<path d="M4.77148 8.58867C4.77148 5.42642 7.76225 2.86292 11.4515 2.86292C15.1408 2.86292 18.1316 5.42642 18.1316 8.58867" stroke="#F6F8FC" stroke-width="1.90858" stroke-linecap="square" stroke-linejoin="round"/>
<path d="M18.1316 16.223V16.9865C18.1316 18.673 16.4225 20.0402 14.3144 20.0402H12.4058" stroke="#F6F8FC" stroke-width="1.90858" stroke-linecap="round" stroke-linejoin="round"/>
</svg>
